<svg xmlns="http://www.w3.org/2000/svg" xmlns:xlink="http://www.w3.org/1999/xlink" width="500" zoomAndPan="magnify" viewBox="0 0 375 374.999991" height="500" preserveAspectRatio="xMidYMid meet" version="1.0"><defs><g/></defs><g fill="#2e2e2e" fill-opacity="1"><g transform="translate(194.628496, 134.784411)"><g><path d="M -1.574219 46.117188 C -1.574219 72.097656 17.660156 88.855469 44.652344 87.058594 L 44.652344 42.628906 L 30.820312 42.628906 L 30.820312 68.160156 C 21.257812 65.910156 14.847656 57.8125 14.847656 46.339844 C 14.847656 31.941406 25.195312 22.71875 39.367188 22.71875 C 53.765625 22.71875 63.886719 32.28125 63.886719 46.117188 C 63.886719 54.886719 59.835938 62.199219 52.976562 66.023438 L 52.976562 85.257812 C 69.511719 80.53125 80.308594 64.898438 80.308594 45.777344 C 80.308594 21.820312 63.324219 4.835938 39.367188 4.835938 C 15.296875 4.835938 -1.574219 21.933594 -1.574219 46.117188 Z M -1.574219 46.117188 "/></g></g></g><g fill="#2e2e2e" fill-opacity="1"><g transform="translate(99.271557, 214.121875)"><g><path d="M 7.257812 0 L 26.878906 0 L 26.878906 -34.828125 L 40.125 -16.285156 L 52.976562 -16.285156 L 66.121094 -34.726562 L 66.121094 0 L 85.742188 0 L 85.742188 -68.671875 L 69.652344 -68.671875 L 46.5 -36.003906 L 23.445312 -68.671875 L 7.257812 -68.671875 Z M 7.257812 0 "/></g></g></g></svg>